# Blender v2.93.1 OBJ File: 'skybox.blend'
# www.blender.org
mtllib skybox.mtl
o Cube.002
v 241.304001 -241.303925 -241.304062
v -241.304001 -241.304062 241.303925
v 241.304001 -241.304062 241.303925
v -241.304001 241.304062 -241.303925
v 241.304001 241.304062 -241.303925
v -241.304001 241.303925 241.304062
v -241.304001 -241.303925 -241.304062
v 241.304001 241.303925 241.304062
vt 0.749888 0.333531
vt 0.501555 -0.000991
vt 0.500516 0.333350
vt 0.999892 0.666521
vt 0.749966 0.666625
vt 0.249496 0.666169
vt -0.000016 0.333346
vt 0.000035 0.666359
vt 0.749797 0.999616
vt 0.500344 0.666398
vt 0.500319 0.999614
vt 0.250518 0.333527
vt 0.751553 0.000383
vt 0.999886 0.333533
vn 0.0000 1.0000 0.0000
vn 0.0000 -0.0000 1.0000
vn 1.0000 0.0000 0.0000
vn 0.0000 -1.0000 -0.0000
vn -1.0000 -0.0000 0.0000
vn 0.0000 0.0000 -1.0000
usemtl Material.002
s 1
f 1/1/1 2/2/1 3/3/1
f 4/4/2 1/1/2 5/5/2
f 6/6/3 7/7/3 4/8/3
f 4/9/4 8/10/4 6/11/4
f 5/5/5 3/3/5 8/10/5
f 8/10/6 2/12/6 6/6/6
f 1/1/1 7/13/1 2/2/1
f 4/4/2 7/14/2 1/1/2
f 6/6/3 2/12/3 7/7/3
f 4/9/4 5/5/4 8/10/4
f 5/5/5 1/1/5 3/3/5
f 8/10/6 3/3/6 2/12/6
