# Blender v2.93.5 OBJ File: 'wall.blend'
# www.blender.org
mtllib wall.mtl
o Cube
v -13.861920 -8.377412 -0.261920
v 13.861918 -8.377414 -0.261920
v -13.861920 -8.377412 0.261920
v 13.861918 -8.377414 0.261920
v -13.861918 8.377414 -0.261920
v 13.861920 8.377412 -0.261920
v -13.861918 8.377414 0.261920
v 13.861920 8.377412 0.261920
v -0.000000 -0.689518 1.000000
v 0.000000 0.689518 1.000000
v -1.930944 -2.457458 -0.155747
vt 4.183810 1.852450
vt 4.189038 -0.223188
vt 4.113998 -0.229287
vt 2.930660 0.463393
vt -1.886240 0.509593
vt -1.885142 2.813356
vt 3.807798 -0.720166
vt -1.578054 -0.707805
vt -1.568691 -0.669492
vt -3.395376 1.832224
vt -3.418930 -0.840743
vt -3.551171 -0.848529
vt 2.936690 0.388261
vt -1.874382 0.417685
vt 2.938618 -1.707453
vt -1.944793 -1.741295
vt 2.912150 2.861488
vt 4.061226 1.847617
vt 3.846034 -0.685340
vt -3.491913 1.822284
vn -1.0000 0.0000 0.0000
vn 0.0000 0.0000 1.0000
vn 0.0000 1.0000 0.0000
vn 1.0000 -0.0000 0.0000
vn -0.0000 -1.0000 0.0000
vn 0.0000 0.0000 -1.0000
usemtl Material
s off
f 5/1/1 1/2/1 3/3/1
f 3/4/2 4/5/2 8/6/2
f 7/7/3 8/8/3 6/9/3
f 2/10/4 6/11/4 8/12/4
f 1/13/5 2/14/5 4/5/5
f 5/15/6 6/16/6 2/14/6
f 3/4/2 8/6/2 7/17/2
f 5/15/6 2/14/6 1/13/6
f 5/1/1 3/3/1 7/18/1
f 7/7/3 6/9/3 5/19/3
f 2/10/4 8/12/4 4/20/4
f 1/13/5 4/5/5 3/4/5
l 9 10
